<svg id="Ebene_1" data-name="Ebene 1" xmlns="http://www.w3.org/2000/svg" viewBox="0 0 320.5 261.78"><defs><style>.cls-1{fill:#c6ef9a;}.cls-1,.cls-2{isolation:isolate;}.cls-2{fill:#fe7c7a;}.cls-3{fill:#050505;}</style></defs><path class="cls-1" d="M403,249.76a44.16,44.16,0,0,0,8.83-23c.36-3.34,1.45-14.61-4.17-25.67-8.58-16.89-24.24-16.43-28.52-25.72-17.51,6.11-30.2,24.13-30.2,45.41,0,20.63,11.92,38.19,28.6,44.82C391.61,264,401.58,251.6,403,249.76Z" transform="translate(-99.1 -94.1)"/><path class="cls-2" d="M264,329.09s54.33-42.16,70.33-65l-18.7-32,1.2-29.66,12.67-17,20.5-9.34,22.33-2,5.83-5.5-7.16-22-15.5-22.83-12-10-20.67-8-36.33-5-18.17,5.67L251,116.59l-8.84,7.17-19.33-10.67-25.5-8.66-22.67-3.67-3.47,7.65s-17,19.85-18.69,59.52c0,0-3.17,33,40.66,86.66,0,0,48.93,54.85,70,74.5Z" transform="translate(-99.1 -94.1)"/><path d="M358,215.05H341a5.82,5.82,0,0,0-3.74,1.31,5.37,5.37,0,0,0-2.05,4.66,6.64,6.64,0,0,0,.26,1.36,6,6,0,0,0,5.73,4.23h16.51v16.94a5.93,5.93,0,0,0,1.16,3.54,6.58,6.58,0,0,0,5.22,3,6.33,6.33,0,0,0,4.88-2.46,6,6,0,0,0,1.35-3.81V227h17a5.72,5.72,0,0,0,2.41-.5,6.23,6.23,0,0,0,3.81-5.94c0-5.44-5.45-5.5-5.45-5.5H370.46V197.4a5.89,5.89,0,0,0-1.58-4.07,6.42,6.42,0,0,0-4.76-2,6.31,6.31,0,0,0-5.39,3,6,6,0,0,0-.74,3.46Z" transform="translate(-99.1 -94.1)"/><path class="cls-3" d="M317.09,278.7a6.28,6.28,0,0,0-7.55,7.54,6.21,6.21,0,0,0,4.68,4.68,6.28,6.28,0,0,0,2.87-12.22Z" transform="translate(-99.1 -94.1)"/><path class="cls-3" d="M385.06,170c-5.34-50.67-51.32-68.28-51.32-68.28-52.67-23.34-91.3,15.12-91.3,15.12C219.8,96,188.32,94.25,184.05,94.1c-.3,0-.6,0-.91,0C127.14,96.57,108.4,142,108.4,142c-20.33,40.5-1,71.67-1,71.67h-1.61a6.08,6.08,0,0,0-4.15,1.64c-4.83,4.48-1.52,8.27.88,10.12a5.94,5.94,0,0,0,3.65,1.24h7.73C149.07,284.83,237.24,353.5,237.24,353.5c6.33,5.33,10.66,0,10.66,0,10-6.2,47.81-41.07,54.74-47.49a5,5,0,0,0,1.54-2.85c1.07-6.21-3.6-7.25-6.54-7.3a5,5,0,0,0-3.57,1.47h0c-1.33,1.34-51.17,44.5-51.17,44.5C161.4,278.17,129.07,226.5,129.07,226.5h51.5c9.83,1.67,10.83-6.33,10.83-6.33L202.07,185l30,96a3,3,0,0,0,.47.93c4.95,6.4,9.6,1.73,11,.09a3.11,3.11,0,0,0,.55-1l16.68-54.16h26.71a7.85,7.85,0,0,0,5.87-2.55c3.32-3.71.88-6.64-1.36-8.29a7.86,7.86,0,0,0-4.66-1.49H258.07c-7.17-.17-8.33,5.17-8.33,5.17l-11.67,37.66L207.6,160.66a5.72,5.72,0,0,0-1.29-2.24c-4.22-4.5-7.81-1.93-9.51-.1a6,6,0,0,0-1.38,2.42l-15.35,52.59H121.4c-19-30-4-60.5-4-60.5,13.67-35,49.34-43.5,49.34-43.5,44-10.33,70.87,20.46,70.87,20.46,6.06,5.65,10.46-.12,10.46-.12,35.67-38.34,81-16.34,81-16.34,34.32,12.67,42.33,53,42.33,53a51.3,51.3,0,0,0-6.91-.35,55.11,55.11,0,1,0,55.11,55.11C419.6,197.61,403.52,177.76,385.06,170Zm-18.45,92.9a42.48,42.48,0,1,1,40.21-40.21A42.48,42.48,0,0,1,366.61,262.85Z" transform="translate(-99.1 -94.1)"/></svg>